<svg width="148" height="146" viewBox="0 0 148 146" fill="none" xmlns="http://www.w3.org/2000/svg">
<g clip-path="url(#clip0_404_21859)">
<path d="M110.124 43.9558L109.112 42.9441C104.344 38.3464 98.4837 35.0387 92.0835 33.3325C71.3711 27.7892 51.4781 39.5241 45.828 60.6212C45.5216 61.7612 45.3577 63.0437 45.087 66.2571C43.9898 79.5808 40.8547 89.5202 32.262 99.6021C48.3645 105.929 67.4453 110.389 81.9518 110.389C90.575 110.379 98.9544 107.526 105.793 102.274C112.633 97.0218 117.55 89.6621 119.785 81.3336C121.541 74.7995 121.573 67.9221 119.88 61.3716C118.187 54.8211 114.826 48.821 110.124 43.9558ZM94.6912 19.2891L129.882 -8.07804C131.252 -9.14237 132.963 -9.67026 134.695 -9.5627C136.426 -9.45513 138.059 -8.7195 139.287 -7.49379L160.626 13.8385C161.854 15.0666 162.59 16.7009 162.698 18.434C162.806 20.1672 162.277 21.88 161.21 23.2506L133.85 58.4338C135.779 66.3027 135.895 74.5071 134.189 82.4273C132.483 90.3475 128.999 97.7764 124.001 104.153C119.003 110.53 112.622 115.687 105.338 119.236C98.0552 122.785 90.0608 124.633 81.9589 124.639C57 124.639 24.9375 113.938 7.125 103.25C35.4825 81.8751 28.8349 68.9788 32.0625 56.9376C39.6007 28.7938 66.5617 12.3565 94.6841 19.2891H94.6912ZM119.009 32.677C119.472 33.1258 119.935 33.589 120.384 34.0592L128.471 42.139L146.105 19.4672L133.665 7.02696L110.993 24.6613L119.009 32.677Z" fill="white"/>
</g>
<defs>
<clipPath id="clip0_404_21859">
<rect width="171" height="171" fill="white" transform="translate(0 -25)"/>
</clipPath>
</defs>
</svg>
