<svg width="126" height="139" viewBox="0 0 126 139" fill="none" xmlns="http://www.w3.org/2000/svg">
<g clip-path="url(#clip0_404_21869)">
<path d="M64.0646 94.4813L32.128 126.425L21.5744 115.872L53.5185 83.9352C43.9925 72.0521 38.8114 57.2717 38.833 42.0417C38.833 4.98874 68.905 -25.0833 105.958 -25.0833C143.011 -25.0833 173.083 4.98875 173.083 42.0418C173.083 79.0948 143.011 109.167 105.958 109.167C90.7281 109.188 75.9476 104.007 64.0646 94.4813ZM69.5986 79.5199C79.3326 88.9853 92.3806 94.2715 105.958 94.2501C134.807 94.2501 158.166 70.8831 158.166 42.0418C158.166 13.1929 134.807 -10.1666 105.958 -10.1666C77.1166 -10.1666 53.7497 13.1929 53.7497 42.0418C53.7283 55.6191 59.0144 68.6671 68.4799 78.4011L69.5986 79.5199Z" fill="white"/>
</g>
<defs>
<clipPath id="clip0_404_21869">
<rect width="179" height="179" fill="white" transform="translate(188 -40) rotate(90)"/>
</clipPath>
</defs>
</svg>
