<svg width="126" height="133" viewBox="0 0 126 133" fill="none" xmlns="http://www.w3.org/2000/svg">
<mask id="path-1-inside-1_404_21851" fill="white">
<path d="M1.08168 25.9445C0.55297 24.9941 0.288615 24.5189 0.288615 24C0.288615 23.4812 0.55297 23.0059 1.08168 22.0555L30.1436 -30.188L60.8568 -81.4781C61.4156 -82.4112 61.695 -82.8778 62.1443 -83.1372C62.5936 -83.3966 63.1374 -83.4053 64.2248 -83.4226L124 -84.376L183.775 -83.4226C184.863 -83.4053 185.406 -83.3966 185.856 -83.1372C186.305 -82.8778 186.584 -82.4112 187.143 -81.4781L217.856 -30.188L246.918 22.0555C247.447 23.0059 247.711 23.4812 247.711 24C247.711 24.5188 247.447 24.9941 246.918 25.9445L217.856 78.188L187.143 129.478C186.584 130.411 186.305 130.878 185.856 131.137C185.406 131.397 184.863 131.405 183.775 131.423L124 132.376L64.2248 131.423C63.1374 131.405 62.5936 131.397 62.1443 131.137C61.695 130.878 61.4156 130.411 60.8569 129.478L30.1436 78.188L1.08168 25.9445Z"/>
</mask>
<path d="M30.1436 -30.188L17.2745 -37.8942L17.1516 -37.689L17.0353 -37.4799L30.1436 -30.188ZM124 -84.376L124.239 -99.3741L124 -99.3779L123.761 -99.3741L124 -84.376ZM217.856 -30.188L230.965 -37.4799L230.848 -37.6889L230.726 -37.8942L217.856 -30.188ZM217.856 78.188L230.726 85.8942L230.848 85.6889L230.965 85.4799L217.856 78.188ZM124 132.376L123.761 147.374L124 147.378L124.239 147.374L124 132.376ZM30.1436 78.188L17.0353 85.4799L17.1516 85.689L17.2745 85.8942L30.1436 78.188ZM64.2248 131.423L64.464 116.425L64.2248 131.423ZM60.8569 129.478L47.9877 137.184L60.8569 129.478ZM62.1443 131.137L54.6443 144.128L62.1443 131.137ZM187.143 129.478L174.274 121.772L187.143 129.478ZM185.856 131.137L193.356 144.128L185.856 131.137ZM246.918 22.0555L233.81 29.3474L246.918 22.0555ZM246.918 25.9445L233.81 18.6526L246.918 25.9445ZM247.711 24L232.711 24L247.711 24ZM183.775 -83.4226L184.014 -98.4207L183.775 -83.4226ZM187.143 -81.4781L200.012 -89.1843L187.143 -81.4781ZM185.856 -83.1372L178.356 -70.1468L185.856 -83.1372ZM60.8568 -81.4781L47.9877 -89.1843L60.8568 -81.4781ZM64.2248 -83.4226L64.464 -68.4245L64.2248 -83.4226ZM62.1443 -83.1372L69.6443 -70.1468L62.1443 -83.1372ZM1.08168 22.0555L-12.0267 14.7636L1.08168 22.0555ZM1.08168 25.9445L14.19 18.6526L1.08168 25.9445ZM0.288615 24L15.2886 24L0.288615 24ZM14.19 29.3474L43.252 -22.8961L17.0353 -37.4799L-12.0267 14.7636L14.19 29.3474ZM43.0127 -22.4818L73.726 -73.7719L47.9877 -89.1843L17.2745 -37.8942L43.0127 -22.4818ZM64.464 -68.4245L124.239 -69.3779L123.761 -99.3741L63.9856 -98.4207L64.464 -68.4245ZM123.761 -69.3779L183.536 -68.4245L184.014 -98.4207L124.239 -99.3741L123.761 -69.3779ZM174.274 -73.7719L204.987 -22.4818L230.726 -37.8942L200.012 -89.1843L174.274 -73.7719ZM204.748 -22.8961L233.81 29.3474L260.027 14.7636L230.965 -37.4799L204.748 -22.8961ZM233.81 18.6526L204.748 70.8961L230.965 85.4799L260.027 33.2364L233.81 18.6526ZM204.987 70.4818L174.274 121.772L200.012 137.184L230.726 85.8942L204.987 70.4818ZM183.536 116.425L123.761 117.378L124.239 147.374L184.014 146.421L183.536 116.425ZM124.239 117.378L64.464 116.425L63.9856 146.421L123.761 147.374L124.239 117.378ZM73.726 121.772L43.0128 70.4818L17.2745 85.8942L47.9877 137.184L73.726 121.772ZM43.252 70.8961L14.19 18.6526L-12.0267 33.2364L17.0353 85.4799L43.252 70.8961ZM64.464 116.425C64.1518 116.42 64.0658 116.418 64.0234 116.416C63.9838 116.415 64.2317 116.421 64.6159 116.464C65.4851 116.561 67.4582 116.885 69.6443 118.147L54.6443 144.128C57.2798 145.649 59.7494 146.106 61.2746 146.277C62.4815 146.413 63.7249 146.417 63.9856 146.421L64.464 116.425ZM47.9877 137.184C48.1217 137.408 48.7468 138.483 49.4674 139.46C50.3781 140.696 52.0088 142.606 54.6443 144.128L69.6443 118.147C71.8305 119.409 73.0969 120.956 73.6159 121.66C73.8452 121.971 73.9745 122.183 73.9535 122.149C73.9311 122.113 73.8864 122.04 73.726 121.772L47.9877 137.184ZM174.274 121.772C174.114 122.04 174.069 122.113 174.046 122.149C174.025 122.183 174.155 121.971 174.384 121.66C174.903 120.956 176.17 119.409 178.356 118.147L193.356 144.128C195.991 142.606 197.622 140.696 198.533 139.46C199.253 138.483 199.878 137.408 200.012 137.184L174.274 121.772ZM184.014 146.421C184.275 146.417 185.519 146.413 186.725 146.277C188.251 146.106 190.72 145.649 193.356 144.128L178.356 118.147C180.542 116.885 182.515 116.561 183.384 116.464C183.768 116.421 184.016 116.415 183.977 116.416C183.934 116.418 183.848 116.42 183.536 116.425L184.014 146.421ZM233.81 29.3474C233.962 29.6203 234.003 29.6957 234.023 29.7332C234.042 29.7682 233.923 29.5504 233.768 29.1961C233.418 28.3947 232.711 26.5243 232.711 24L262.711 24C262.711 20.9568 261.873 18.5895 261.258 17.1831C260.772 16.0703 260.153 14.9914 260.027 14.7636L233.81 29.3474ZM260.027 33.2364C260.153 33.0085 260.772 31.9297 261.258 30.8169C261.873 29.4105 262.711 27.0432 262.711 24L232.711 24C232.711 21.4757 233.418 19.6054 233.768 18.8039C233.923 18.4496 234.042 18.2318 234.023 18.2668C234.003 18.3043 233.962 18.3797 233.81 18.6526L260.027 33.2364ZM183.536 -68.4245C183.848 -68.4196 183.934 -68.4177 183.977 -68.4162C184.016 -68.4148 183.768 -68.421 183.384 -68.464C182.515 -68.5614 180.542 -68.8847 178.356 -70.1468L193.356 -96.1276C190.72 -97.6492 188.251 -98.1064 186.725 -98.2774C185.519 -98.4126 184.275 -98.4166 184.014 -98.4207L183.536 -68.4245ZM200.012 -89.1843C199.878 -89.408 199.253 -90.4829 198.533 -91.4605C197.622 -92.6959 195.991 -94.606 193.356 -96.1276L178.356 -70.1468C176.17 -71.409 174.903 -72.9561 174.384 -73.6601C174.155 -73.9713 174.025 -74.183 174.046 -74.1494C174.069 -74.1134 174.114 -74.0399 174.274 -73.7719L200.012 -89.1843ZM73.726 -73.7719C73.8864 -74.0399 73.9311 -74.1134 73.9535 -74.1494C73.9745 -74.183 73.8452 -73.9713 73.6158 -73.6601C73.0969 -72.9561 71.8304 -71.409 69.6443 -70.1468L54.6443 -96.1276C52.0088 -94.606 50.378 -92.6959 49.4674 -91.4605C48.7468 -90.4829 48.1217 -89.408 47.9877 -89.1843L73.726 -73.7719ZM63.9856 -98.4207C63.7249 -98.4166 62.4815 -98.4126 61.2746 -98.2774C59.7494 -98.1064 57.2798 -97.6492 54.6443 -96.1276L69.6443 -70.1468C67.4582 -68.8846 65.4851 -68.5614 64.6159 -68.464C64.2317 -68.421 63.9838 -68.4148 64.0234 -68.4162C64.0658 -68.4177 64.1517 -68.4196 64.464 -68.4245L63.9856 -98.4207ZM-12.0267 14.7636C-12.1534 14.9915 -12.7717 16.0703 -13.258 17.1831C-13.8726 18.5895 -14.7114 20.9568 -14.7114 24L15.2886 24C15.2886 26.5243 14.582 28.3947 14.2318 29.1961C14.077 29.5504 13.9583 29.7682 13.9769 29.7332C13.9968 29.6957 14.0382 29.6203 14.19 29.3474L-12.0267 14.7636ZM14.19 18.6526C14.0382 18.3797 13.9968 18.3043 13.9769 18.2668C13.9583 18.2318 14.077 18.4496 14.2318 18.8039C14.582 19.6054 15.2886 21.4757 15.2886 24L-14.7114 24C-14.7114 27.0432 -13.8726 29.4105 -13.258 30.8169C-12.7717 31.9297 -12.1534 33.0086 -12.0267 33.2364L14.19 18.6526Z" fill="white" mask="url(#path-1-inside-1_404_21851)"/>
<circle cx="124" cy="24" r="44.5" stroke="white" stroke-width="15"/>
</svg>
