<svg width="142" height="95" viewBox="0 0 142 95" fill="none" xmlns="http://www.w3.org/2000/svg">
<path opacity="0.7" d="M163.878 79.1344V74.8733C162.319 31.2891 125.607 0 81.5732 0C36.63 0 0 36.5796 0 81.461C0 126.342 36.63 162.922 81.5732 162.922C103.395 162.922 123.139 154.361 137.817 140.481L164 173L163.878 86.4391C164.008 84.8825 163.878 83.2556 163.878 81.5693C163.878 81.3099 163.878 79.5236 163.878 79.1344ZM81.5732 136.201C51.4379 136.201 26.888 111.685 26.888 81.5908C26.888 51.4969 51.4379 26.9807 81.5732 26.9807C111.709 26.9807 136.258 51.4969 136.258 81.5908C136.258 111.685 111.709 136.201 81.5732 136.201Z" fill="url(#paint0_linear_198_496)"/>
<defs>
<linearGradient id="paint0_linear_198_496" x1="5.86747e-06" y1="119.416" x2="73.0555" y2="179.49" gradientUnits="userSpaceOnUse">
<stop stop-color="#0BB2FE"/>
<stop offset="1" stop-color="#1673FF"/>
</linearGradient>
</defs>
</svg>
