<svg width="25" height="25" viewBox="0 0 25 25" fill="none" xmlns="http://www.w3.org/2000/svg">
<g clip-path="url(#clip0_58_12342)">
<path d="M3.8403 17.5001C3.41758 16.7691 3.08897 15.9875 2.8623 15.1741C3.35561 14.9232 3.7699 14.5407 4.05933 14.069C4.34877 13.5972 4.50207 13.0546 4.50228 12.5012C4.50248 11.9477 4.34959 11.405 4.06051 10.9331C3.77143 10.4611 3.35742 10.0783 2.8643 9.82707C3.31634 8.19255 4.17703 6.70002 5.3653 5.49007C5.8294 5.79179 6.36792 5.95923 6.92128 5.97385C7.47464 5.98847 8.02126 5.8497 8.50063 5.5729C8.98001 5.2961 9.37346 4.89207 9.63743 4.40551C9.9014 3.91895 10.0256 3.36884 9.9963 2.81607C11.6384 2.39169 13.3615 2.39238 15.0033 2.81807C14.9743 3.37083 15.0987 3.92086 15.3629 4.40728C15.6271 4.89369 16.0207 5.29754 16.5001 5.57413C16.9796 5.85071 17.5262 5.98925 18.0796 5.97442C18.6329 5.95958 19.1713 5.79195 19.6353 5.49007C20.2143 6.08007 20.7283 6.75107 21.1603 7.50007C21.5933 8.24907 21.9173 9.03007 22.1383 9.82607C21.645 10.077 21.2307 10.4594 20.9413 10.9312C20.6518 11.4029 20.4985 11.9455 20.4983 12.499C20.4981 13.0524 20.651 13.5951 20.9401 14.0671C21.2292 14.539 21.6432 14.9218 22.1363 15.1731C21.6843 16.8076 20.8236 18.3001 19.6353 19.5101C19.1712 19.2083 18.6327 19.0409 18.0793 19.0263C17.526 19.0117 16.9794 19.1504 16.5 19.4272C16.0206 19.704 15.6272 20.1081 15.3632 20.5946C15.0992 21.0812 14.975 21.6313 15.0043 22.1841C13.3622 22.6084 11.6391 22.6078 9.9973 22.1821C10.0264 21.6293 9.9019 21.0793 9.63773 20.5929C9.37355 20.1064 8.97995 19.7026 8.50048 19.426C8.02101 19.1494 7.47436 19.0109 6.92103 19.0257C6.3677 19.0406 5.82927 19.2082 5.3653 19.5101C4.7743 18.907 4.2619 18.2317 3.8403 17.5001ZM9.5003 17.6961C10.5659 18.3107 11.3672 19.2971 11.7503 20.4661C12.2493 20.5131 12.7503 20.5141 13.2493 20.4671C13.6327 19.2979 14.4343 18.3115 15.5003 17.6971C16.5655 17.0808 17.8208 16.8795 19.0253 17.1321C19.3153 16.7241 19.5653 16.2891 19.7733 15.8341C18.9527 14.9175 18.4994 13.7303 18.5003 12.5001C18.5003 11.2401 18.9703 10.0631 19.7733 9.16607C19.5638 8.71122 19.3128 8.2767 19.0233 7.86807C17.8196 8.12038 16.5651 7.91954 15.5003 7.30407C14.4347 6.68944 13.6335 5.70305 13.2503 4.53407C12.7513 4.48707 12.2503 4.48607 11.7513 4.53307C11.3679 5.70221 10.5663 6.68863 9.5003 7.30307C8.43509 7.91938 7.17978 8.12059 5.9753 7.86807C5.68587 8.27635 5.43544 8.71093 5.2273 9.16607C6.04788 10.0826 6.50119 11.2699 6.5003 12.5001C6.5003 13.7601 6.0303 14.9371 5.2273 15.8341C5.43678 16.2889 5.68784 16.7234 5.9773 17.1321C7.18102 16.8798 8.43551 17.0806 9.5003 17.6961ZM12.5003 15.5001C11.7047 15.5001 10.9416 15.184 10.379 14.6214C9.81637 14.0588 9.5003 13.2957 9.5003 12.5001C9.5003 11.7044 9.81637 10.9414 10.379 10.3787C10.9416 9.81614 11.7047 9.50007 12.5003 9.50007C13.296 9.50007 14.059 9.81614 14.6216 10.3787C15.1842 10.9414 15.5003 11.7044 15.5003 12.5001C15.5003 13.2957 15.1842 14.0588 14.6216 14.6214C14.059 15.184 13.296 15.5001 12.5003 15.5001ZM12.5003 13.5001C12.7655 13.5001 13.0199 13.3947 13.2074 13.2072C13.3949 13.0196 13.5003 12.7653 13.5003 12.5001C13.5003 12.2348 13.3949 11.9805 13.2074 11.793C13.0199 11.6054 12.7655 11.5001 12.5003 11.5001C12.2351 11.5001 11.9807 11.6054 11.7932 11.793C11.6057 11.9805 11.5003 12.2348 11.5003 12.5001C11.5003 12.7653 11.6057 13.0196 11.7932 13.2072C11.9807 13.3947 12.2351 13.5001 12.5003 13.5001Z" fill="white"/>
</g>
<defs>
<clipPath id="clip0_58_12342">
<rect width="24" height="24" fill="white" transform="translate(0.5 0.5)"/>
</clipPath>
</defs>
</svg>
