<svg width="40" height="40" viewBox="0 0 40 40" fill="none" xmlns="http://www.w3.org/2000/svg">
<g clip-path="url(#clip0_58_10311)">
<path d="M26.6667 3.33301V6.66634H25.0001V12.0713C25.0001 14.0013 25.4184 15.9063 26.2267 17.658L33.3634 33.118C33.9417 34.373 33.3934 35.858 32.1401 36.4347C31.8117 36.588 31.4551 36.6663 31.0934 36.6663H8.90674C7.52674 36.6663 6.40674 35.5463 6.40674 34.1663C6.40674 33.8047 6.48507 33.4463 6.63674 33.118L13.7734 17.658C14.5817 15.908 15.0001 14.0013 15.0001 12.0713V6.66634H13.3334V3.33301H26.6667ZM22.3134 16.668H17.6867C17.5134 17.273 17.3034 17.8697 17.0634 18.453L16.8001 19.0547L10.2084 33.333H29.7901L23.2001 19.0547C22.8434 18.2813 22.5467 17.483 22.3134 16.668ZM18.3334 12.0713C18.3334 12.493 18.3167 12.9147 18.2851 13.3347H21.7151C21.6984 13.133 21.6884 12.9313 21.6801 12.728L21.6667 12.0713V6.66634H18.3334V12.0713Z" fill="white"/>
</g>
<defs>
<clipPath id="clip0_58_10311">
<rect width="40" height="40" fill="white"/>
</clipPath>
</defs>
</svg>
