<svg width="40" height="40" viewBox="0 0 40 40" fill="none" xmlns="http://www.w3.org/2000/svg">
<g clip-path="url(#clip0_58_10323)">
<path d="M14.9415 29.9997C14.7434 31.3902 14.0502 32.6625 12.9893 33.5829C11.9284 34.5034 10.571 35.0101 9.1665 35.0101C7.76197 35.0101 6.4046 34.5034 5.34371 33.5829C4.28281 32.6625 3.58964 31.3902 3.3915 29.9997H1.6665V9.99967C1.6665 9.55765 1.8421 9.13372 2.15466 8.82116C2.46722 8.5086 2.89114 8.33301 3.33317 8.33301H26.6665C27.1085 8.33301 27.5325 8.5086 27.845 8.82116C28.1576 9.13372 28.3332 9.55765 28.3332 9.99967V13.333H33.3332L38.3332 20.093V29.9997H34.9415C34.7434 31.3902 34.0502 32.6625 32.9893 33.5829C31.9284 34.5034 30.571 35.0101 29.1665 35.0101C27.762 35.0101 26.4046 34.5034 25.3437 33.5829C24.2828 32.6625 23.5896 31.3902 23.3915 29.9997H14.9415ZM24.9998 11.6663H4.99984V25.083C5.65744 24.4117 6.46751 23.9091 7.36109 23.6182C8.25468 23.3273 9.20533 23.2565 10.1321 23.412C11.0589 23.5675 11.9345 23.9446 12.6842 24.5112C13.4339 25.0778 14.0356 25.8172 14.4382 26.6663H23.8948C24.1748 26.078 24.5498 25.543 24.9998 25.083V11.6663ZM28.3332 21.6663H34.9998V21.1913L31.6532 16.6663H28.3332V21.6663ZM29.1665 31.6663C29.8298 31.6663 30.4659 31.4029 30.9349 30.9339C31.4039 30.4649 31.6673 29.8288 31.6673 29.1655C31.6673 28.5022 31.4039 27.8661 30.9349 27.3972C30.4659 26.9282 29.8298 26.6647 29.1665 26.6647C28.5032 26.6647 27.8671 26.9282 27.3981 27.3972C26.9291 27.8661 26.6657 28.5022 26.6657 29.1655C26.6657 29.8288 26.9291 30.4649 27.3981 30.9339C27.8671 31.4029 28.5032 31.6663 29.1665 31.6663ZM11.6665 29.1663C11.6665 28.838 11.6018 28.5129 11.4762 28.2096C11.3506 27.9063 11.1664 27.6307 10.9343 27.3986C10.7021 27.1664 10.4265 26.9823 10.1232 26.8566C9.8199 26.731 9.49481 26.6663 9.1665 26.6663C8.8382 26.6663 8.51311 26.731 8.20979 26.8566C7.90648 26.9823 7.63088 27.1664 7.39874 27.3986C7.16659 27.6307 6.98244 27.9063 6.8568 28.2096C6.73117 28.5129 6.6665 28.838 6.6665 29.1663C6.6665 29.8294 6.9299 30.4653 7.39874 30.9341C7.86758 31.403 8.50346 31.6663 9.1665 31.6663C9.82954 31.6663 10.4654 31.403 10.9343 30.9341C11.4031 30.4653 11.6665 29.8294 11.6665 29.1663Z" fill="white"/>
</g>
<defs>
<clipPath id="clip0_58_10323">
<rect width="40" height="40" fill="white"/>
</clipPath>
</defs>
</svg>
