<svg width="41" height="40" viewBox="0 0 41 40" fill="none" xmlns="http://www.w3.org/2000/svg">
<path d="M0.931269 24.1189C0.356244 21.4031 0.356244 18.5969 0.931269 15.8811C3.15067 16.141 5.09015 15.4072 5.72198 13.8796C6.35581 12.3501 5.50604 10.4606 3.75051 9.07494C5.26418 6.74822 7.24822 4.76418 9.57494 3.25051C10.9586 5.00404 12.8501 5.85581 14.3796 5.22198C15.9092 4.58815 16.643 2.65067 16.3811 0.431269C19.0969 -0.143756 21.9031 -0.143756 24.6189 0.431269C24.359 2.65067 25.0928 4.59015 26.6203 5.22198C28.1499 5.85581 30.0394 5.00604 31.4251 3.25051C33.7518 4.76418 35.7358 6.74822 37.2495 9.07494C35.496 10.4586 34.6442 12.3501 35.278 13.8796C35.9118 15.4092 37.8493 16.143 40.0687 15.8811C40.6438 18.5969 40.6438 21.4031 40.0687 24.1189C37.8493 23.859 35.9099 24.5928 35.278 26.1203C34.6442 27.6499 35.494 29.5394 37.2495 30.9251C35.7358 33.2518 33.7518 35.2358 31.4251 36.7495C30.0414 34.996 28.1499 34.1442 26.6203 34.778C25.0908 35.4118 24.357 37.3493 24.6189 39.5687C21.9031 40.1438 19.0969 40.1438 16.3811 39.5687C16.641 37.3493 15.9072 35.4099 14.3796 34.778C12.8501 34.1442 10.9606 34.994 9.57494 36.7495C7.24822 35.2358 5.26418 33.2518 3.75051 30.9251C5.50404 29.5414 6.35581 27.6499 5.72198 26.1203C5.08815 24.5908 3.15067 23.857 0.931269 24.1189ZM4.50431 20.4199C6.70371 21.0297 8.51723 22.4233 9.41698 24.5908C10.3147 26.7602 10.0168 29.0296 8.89312 31.013C9.08507 31.217 9.28302 31.4149 9.48696 31.6069C11.4724 30.4832 13.7398 30.1873 15.9092 31.083C18.0767 31.9828 19.4703 33.7963 20.0801 35.9957C20.36 36.0037 20.64 36.0037 20.9199 35.9957C21.5297 33.7963 22.9233 31.9828 25.0908 31.083C27.2602 30.1853 29.5296 30.4832 31.513 31.6069C31.717 31.4149 31.9149 31.217 32.1069 31.013C30.9832 29.0276 30.6873 26.7602 31.583 24.5908C32.4828 22.4233 34.2963 21.0297 36.4957 20.4199C36.5037 20.14 36.5037 19.86 36.4957 19.5801C34.2963 18.9703 32.4828 17.5767 31.583 15.4092C30.6853 13.2398 30.9832 10.9704 32.1069 8.98696C31.9142 8.78381 31.7162 8.5858 31.513 8.39312C29.5276 9.51682 27.2602 9.81274 25.0908 8.91698C22.9233 8.01723 21.5297 6.20371 20.9199 4.00431C20.64 3.9969 20.36 3.9969 20.0801 4.00431C19.4703 6.20371 18.0767 8.01723 15.9092 8.91698C13.7398 9.81474 11.4704 9.51682 9.48696 8.39312C9.28302 8.58507 9.08507 8.78302 8.89312 8.98696C10.0168 10.9724 10.3127 13.2398 9.41698 15.4092C8.51723 17.5767 6.70371 18.9703 4.50431 19.5801C4.49631 19.86 4.49631 20.14 4.50431 20.4199ZM20.5 25.9984C18.9091 25.9984 17.3834 25.3664 16.2585 24.2415C15.1336 23.1166 14.5016 21.5909 14.5016 20C14.5016 18.4091 15.1336 16.8834 16.2585 15.7585C17.3834 14.6336 18.9091 14.0016 20.5 14.0016C22.0909 14.0016 23.6166 14.6336 24.7415 15.7585C25.8664 16.8834 26.4984 18.4091 26.4984 20C26.4984 21.5909 25.8664 23.1166 24.7415 24.2415C23.6166 25.3664 22.0909 25.9984 20.5 25.9984ZM20.5 21.9995C21.0303 21.9995 21.5389 21.7888 21.9138 21.4138C22.2888 21.0389 22.4995 20.5303 22.4995 20C22.4995 19.4697 22.2888 18.9611 21.9138 18.5862C21.5389 18.2112 21.0303 18.0005 20.5 18.0005C19.9697 18.0005 19.4611 18.2112 19.0862 18.5862C18.7112 18.9611 18.5005 19.4697 18.5005 20C18.5005 20.5303 18.7112 21.0389 19.0862 21.4138C19.4611 21.7888 19.9697 21.9995 20.5 21.9995Z" fill="white"/>
</svg>
