<svg width="24" height="24" viewBox="0 0 24 24" fill="none" xmlns="http://www.w3.org/2000/svg">
<path fill-rule="evenodd" clip-rule="evenodd" d="M9.73722 14.8922L9.41055 19.8272C9.88888 19.8272 10.1105 19.6056 10.3789 19.3372L12.7006 17.0856L17.5305 20.6556C18.4172 21.1456 19.0589 20.8889 19.2805 19.8272L22.4539 4.88223C22.7805 3.57556 21.9639 2.98056 21.1122 3.36556L2.48055 10.5522C1.20888 11.0656 1.22055 11.7772 2.24722 12.0689L7.03055 13.5856L18.0905 6.59723C18.19 6.53758 18.2877 6.4955 18.3781 6.46893L18.3811 6.46807C18.5039 6.43241 18.613 6.42537 18.6944 6.44179C18.8687 6.47694 18.9158 6.61957 18.6972 6.81889L9.73722 14.8922ZM19.599 8.6985L12.893 14.7408L17.5803 18.2053L19.599 8.6985ZM17.3014 19.5002C17.3014 19.5002 17.3028 19.4948 17.3064 19.4857C17.3034 19.4959 17.3014 19.5002 17.3014 19.5002ZM20.5302 4.31392L20.5299 4.31639L20.5302 4.31392Z" fill="#141851"/>
</svg>
