<svg width="150" height="35" viewBox="0 0 150 35" fill="none" xmlns="http://www.w3.org/2000/svg">
<g clip-path="url(#clip0_198_1235)">
<path d="M22.8863 18.7544H2.54439C2.21046 18.755 1.8797 18.6908 1.57103 18.5655C1.26235 18.4403 0.981828 18.2564 0.745502 18.0244C0.509175 17.7924 0.321687 17.5168 0.193766 17.2135C0.0658439 16.9102 -5.02381e-07 16.5851 8.60063e-10 16.2567L8.60062e-10 2.50606C-1.16049e-05 2.06705 0.117433 1.63578 0.340541 1.25553C0.563648 0.875287 0.884565 0.55946 1.27106 0.339764C1.65756 0.120069 2.09604 0.00423918 2.54247 0.00390697C2.98889 0.00357476 3.42754 0.118752 3.81438 0.337872L12.7175 5.38974L21.6075 0.337872C21.9943 0.118752 22.433 0.00357476 22.8794 0.00390697C23.3258 0.00423918 23.7643 0.120069 24.1508 0.339764C24.5373 0.55946 24.8582 0.875287 25.0813 1.25553C25.3044 1.63578 25.4219 2.06705 25.4219 2.50606V16.2567C25.4219 16.9184 25.1549 17.553 24.6795 18.0213C24.2041 18.4896 23.5592 18.7533 22.8863 18.7544Z" fill="white"/>
<path d="M46.4822 5.17801C44.6183 5.17801 43.2454 5.87472 42.3635 7.26814C41.9905 6.6025 41.4346 6.0535 40.7593 5.68389C40.084 5.31428 39.3165 5.13897 38.5447 5.17801C37.7866 5.13783 37.0311 5.29557 36.355 5.63524C35.6789 5.9749 35.1062 6.4844 34.695 7.11203V5.52492H31.7891V18.7552H34.695V11.3443C34.629 10.4068 34.9215 9.47887 35.5153 8.7425C35.7873 8.44617 36.1223 8.21219 36.4964 8.05709C36.8705 7.90199 37.2747 7.82955 37.6804 7.84488C38.0303 7.82438 38.3805 7.88155 38.7049 8.01216C39.0293 8.14277 39.3197 8.34347 39.5545 8.5994C40.0272 9.2081 40.2606 9.96418 40.2116 10.7286V18.7552H43.1176V11.3443C43.1176 10.1995 43.3777 9.32791 43.8981 8.7425C44.169 8.44898 44.5032 8.21876 44.8764 8.0687C45.2495 7.91864 45.652 7.85254 46.0544 7.87523C46.4104 7.85789 46.7659 7.91764 47.0959 8.05027C47.4258 8.1829 47.7221 8.38516 47.9638 8.64277C48.4615 9.23541 48.7121 9.99168 48.6649 10.7589V18.7552H51.593V10.5508C51.6641 9.11936 51.1605 7.71776 50.1907 6.64804C49.7143 6.1579 49.1371 5.77326 48.4976 5.51977C47.8581 5.26628 47.171 5.14977 46.4822 5.17801Z" fill="white"/>
<path d="M64.9691 7.40174C63.8755 5.91871 62.3057 5.17719 60.2596 5.17719C59.3708 5.16691 58.4897 5.34076 57.6737 5.68743C56.8578 6.03409 56.1252 6.5458 55.5236 7.18926C54.8778 7.84492 54.3713 8.62051 54.0336 9.47076C53.6959 10.321 53.5338 11.2289 53.5568 12.1414C53.5341 13.0539 53.6963 13.9617 54.0339 14.8119C54.3716 15.6621 54.878 16.4377 55.5236 17.0935C56.1252 17.737 56.8578 18.2487 57.6737 18.5954C58.4897 18.942 59.3708 19.1159 60.2596 19.1056C62.3174 19.1056 63.8873 18.3554 64.9691 16.855V18.7587H67.8751V5.5241H64.9691V7.40174ZM63.7609 15.1769C62.9408 15.9456 61.8512 16.3745 60.7182 16.3745C59.5851 16.3745 58.4956 15.9456 57.6755 15.1769C57.28 14.7745 56.9696 14.2991 56.7623 13.7781C56.5549 13.2571 56.4546 12.7008 56.4672 12.1414C56.4459 11.581 56.5422 11.0222 56.7501 10.5C56.958 9.97778 57.273 9.50324 57.6755 9.10594C58.4892 8.32509 59.5812 7.88802 60.7182 7.88802C61.8552 7.88802 62.9471 8.32509 63.7609 9.10594C64.1634 9.50324 64.4784 9.97778 64.6862 10.5C64.8941 11.0222 64.9904 11.581 64.9691 12.1414C64.985 12.7012 64.8862 13.2584 64.6786 13.7798C64.471 14.3013 64.1589 14.7764 63.7609 15.1769Z" fill="white"/>
<path d="M74.0471 7.74485V5.52463H71.1367V18.7549H74.0471V12.0856C74.0471 10.7268 74.4587 9.75693 75.2818 9.17585C76.1244 8.57785 77.1568 8.29634 78.1922 8.3823V5.28613C76.1638 5.28613 74.7821 6.10571 74.0471 7.74485Z" fill="white"/>
<path d="M91.6422 5.5204H88.0924L82.8713 11.2617V0.342773H79.9609V18.755H82.8713V12.7058L88.3879 18.755H91.8583L85.7244 12.0076L91.6422 5.5204Z" fill="white"/>
<path d="M96.0935 5.52441H93.1875V18.759H96.0935V5.52441Z" fill="white"/>
<path d="M112.652 1.76953H109.742V5.52482H103.63V1.76953H100.724V5.52482H98.25V8.04425H100.724V14.6269C100.724 16.3614 101.209 17.5481 102.179 18.187C103.149 18.8259 104.745 19.0153 106.968 18.7551V16.188C106.232 16.2226 105.619 16.227 105.125 16.188C104.716 16.1941 104.32 16.0538 104.009 15.7933C103.869 15.6317 103.763 15.444 103.698 15.2414C103.633 15.0388 103.61 14.8254 103.63 14.6139V8.04425H109.742V14.6269C109.742 16.3614 110.227 17.5481 111.197 18.187C112.167 18.8259 113.76 19.0153 115.977 18.7551V16.188C115.245 16.2226 114.628 16.227 114.134 16.188C113.725 16.1941 113.329 16.0538 113.018 15.7933C112.879 15.6314 112.773 15.4435 112.709 15.2409C112.645 15.0383 112.622 14.8251 112.643 14.6139V8.04425H115.977V5.52482H112.643L112.652 1.76953Z" fill="white"/>
<path d="M121.531 5.52441H118.625V18.759H121.531V5.52441Z" fill="white"/>
<path d="M131.119 5.17765C130.171 5.14224 129.227 5.30305 128.346 5.64967C127.466 5.99629 126.669 6.52098 126.008 7.18973C125.355 7.84108 124.841 8.61531 124.499 9.46618C124.156 10.317 123.992 11.2271 124.015 12.1419C123.986 13.0675 124.15 13.9891 124.497 14.8499C124.845 15.7106 125.368 16.4921 126.035 17.146C126.739 17.8033 127.57 18.3153 128.479 18.6519C129.388 18.9885 130.356 19.1429 131.326 19.1061C133.946 19.1061 135.911 18.1434 137.222 16.218L134.823 14.8434C134.434 15.3817 133.912 15.814 133.307 16.0999C132.701 16.3859 132.032 16.516 131.362 16.4782C130.35 16.5132 129.354 16.2257 128.522 15.6587C127.752 15.1035 127.228 14.2795 127.058 13.356H137.769C137.835 12.9633 137.871 12.566 137.875 12.1679C137.918 10.3357 137.233 8.55926 135.965 7.21575C135.355 6.55257 134.605 6.02708 133.769 5.67529C132.932 5.32351 132.029 5.15375 131.119 5.17765ZM126.974 11.2486C127.021 10.7426 127.172 10.2512 127.418 9.80409C127.664 9.35697 127.998 8.96329 128.403 8.64675C129.165 8.05012 130.119 7.74237 131.093 7.77947C132.011 7.75952 132.906 8.06764 133.611 8.64675C134 8.96865 134.318 9.36556 134.546 9.81303C134.773 10.2605 134.905 10.7491 134.933 11.2486H126.974Z" fill="white"/>
<path d="M149.607 13.2651C149.327 12.7596 148.913 12.3385 148.408 12.0466C147.941 11.7642 147.446 11.5288 146.931 11.3441C146.391 11.171 145.842 11.0262 145.286 10.9105C144.629 10.747 143.997 10.5022 143.403 10.182C143.214 10.0901 143.053 9.94897 142.94 9.7739C142.826 9.59883 142.764 9.39652 142.759 9.18895C142.75 8.98206 142.796 8.77644 142.894 8.59292C142.992 8.4094 143.137 8.25449 143.315 8.14389C143.735 7.88092 144.228 7.75079 144.726 7.77096C145.963 7.77096 146.807 8.27398 147.257 9.28002L149.704 7.93141C149.25 7.08033 148.555 6.37694 147.702 5.90632C146.792 5.41141 145.766 5.1602 144.726 5.17781C143.454 5.13606 142.207 5.52999 141.198 6.29226C140.744 6.63746 140.38 7.08339 140.134 7.59362C139.889 8.10384 139.77 8.66388 139.787 9.22798C139.755 9.83052 139.89 10.4303 140.179 10.9625C140.466 11.4595 140.887 11.868 141.397 12.142C141.86 12.4127 142.347 12.6434 142.852 12.8315C143.385 13.0179 143.929 13.1771 144.479 13.3085C146.187 13.7161 147.039 14.2813 147.037 15.004C147.037 15.9869 146.274 16.4798 144.748 16.4827C143.222 16.4856 142.227 15.8511 141.763 14.5791L139.258 16.0014C139.678 16.9618 140.406 17.7611 141.33 18.278C142.374 18.8488 143.554 19.1333 144.748 19.1019C146.083 19.1469 147.396 18.765 148.492 18.0135C148.975 17.6777 149.366 17.2287 149.629 16.707C149.891 16.1853 150.017 15.6074 149.995 15.0257C150.027 14.4154 149.894 13.8077 149.607 13.2651Z" fill="white"/>
<path d="M94.639 3.53848C95.6326 3.53848 96.4382 2.74636 96.4382 1.76924C96.4382 0.792115 95.6326 0 94.639 0C93.6454 0 92.8398 0.792115 92.8398 1.76924C92.8398 2.74636 93.6454 3.53848 94.639 3.53848Z" fill="white"/>
<path d="M120.076 3.53848C121.07 3.53848 121.876 2.74636 121.876 1.76924C121.876 0.792115 121.07 0 120.076 0C119.083 0 118.277 0.792115 118.277 1.76924C118.277 2.74636 119.083 3.53848 120.076 3.53848Z" fill="white"/>
</g>
<path d="M0.238281 25.348H2.90877C3.84101 25.348 4.61464 25.6684 5.22966 26.3092C5.85115 26.95 6.1619 27.7398 6.1619 28.6788C6.1619 29.6115 5.85115 30.4013 5.22966 31.0485C4.61464 31.6892 3.84101 32.0096 2.90877 32.0096H0.238281V25.348ZM1.35503 30.9628H2.90877C3.54968 30.9628 4.07083 30.7471 4.47221 30.3157C4.88007 29.8843 5.08399 29.3386 5.08399 28.6788C5.08399 28.019 4.88007 27.4734 4.47221 27.042C4.07083 26.6105 3.54968 26.3948 2.90877 26.3948H1.35503V30.9628Z" fill="white"/>
<path d="M8.10255 26.3472C7.97307 26.4741 7.8177 26.5376 7.63643 26.5376C7.45516 26.5376 7.29655 26.4741 7.1606 26.3472C7.03112 26.214 6.96638 26.0586 6.96638 25.8809C6.96638 25.7033 7.03112 25.551 7.1606 25.4241C7.29008 25.2909 7.44869 25.2243 7.63643 25.2243C7.82417 25.2243 7.98278 25.2909 8.11226 25.4241C8.24174 25.551 8.30648 25.7033 8.30648 25.8809C8.30648 26.0586 8.2385 26.214 8.10255 26.3472ZM8.16082 32.0096H7.11205V27.2513H8.16082V32.0096Z" fill="white"/>
<path d="M13.2435 27.9556V27.2513H14.2728V31.7908C14.2728 32.514 14.03 33.0692 13.5445 33.4562C13.0654 33.8432 12.4763 34.0367 11.7771 34.0367C10.6571 34.0367 9.88998 33.6528 9.47565 32.8852L10.3788 32.3713C10.6312 32.8598 11.1038 33.1041 11.7965 33.1041C12.2497 33.1041 12.6025 32.9867 12.855 32.7519C13.114 32.5235 13.2435 32.2031 13.2435 31.7908V31.2102C12.8486 31.7622 12.2853 32.0382 11.5538 32.0382C10.874 32.0382 10.2946 31.8003 9.81553 31.3244C9.34294 30.8423 9.10664 30.2618 9.10664 29.5829C9.10664 28.8977 9.34294 28.3204 9.81553 27.8509C10.2881 27.3687 10.8675 27.1276 11.5538 27.1276C12.2853 27.1276 12.8486 27.4036 13.2435 27.9556ZM10.5924 30.6488C10.8902 30.9343 11.2592 31.077 11.6994 31.077C12.1397 31.077 12.5054 30.9343 12.7968 30.6488C13.0946 30.3633 13.2435 30.008 13.2435 29.5829C13.2435 29.1578 13.0946 28.8025 12.7968 28.517C12.5054 28.2315 12.1397 28.0888 11.6994 28.0888C11.2592 28.0888 10.8902 28.2315 10.5924 28.517C10.3011 28.8025 10.1554 29.1578 10.1554 29.5829C10.1554 30.008 10.3011 30.3633 10.5924 30.6488Z" fill="white"/>
<path d="M16.4857 26.3472C16.3563 26.4741 16.2009 26.5376 16.0196 26.5376C15.8384 26.5376 15.6797 26.4741 15.5438 26.3472C15.4143 26.214 15.3496 26.0586 15.3496 25.8809C15.3496 25.7033 15.4143 25.551 15.5438 25.4241C15.6733 25.2909 15.8319 25.2243 16.0196 25.2243C16.2074 25.2243 16.366 25.2909 16.4955 25.4241C16.6249 25.551 16.6897 25.7033 16.6897 25.8809C16.6897 26.0586 16.6217 26.214 16.4857 26.3472ZM16.544 32.0096H15.4952V27.2513H16.544V32.0096Z" fill="white"/>
<path d="M20.4711 27.2513V28.2411H19.2669V30.525C19.2669 30.7217 19.3122 30.8645 19.4029 30.9533C19.4935 31.0358 19.6262 31.0834 19.801 31.096C19.9823 31.1024 20.2056 31.0992 20.4711 31.0865V32.0096C19.6683 32.1048 19.0921 32.0382 18.7425 31.8098C18.3929 31.575 18.2181 31.1468 18.2181 30.525V28.2411H17.3247V27.2513H18.2181V26.2235L19.2669 25.919V27.2513H20.4711Z" fill="white"/>
<path d="M25.0686 27.927V27.2513H26.1174V32.0096H25.0686V31.3244C24.6737 31.8637 24.1072 32.1334 23.3692 32.1334C22.7024 32.1334 22.1327 31.8923 21.6601 31.4101C21.1875 30.9279 20.9512 30.3347 20.9512 29.6305C20.9512 28.9263 21.1875 28.333 21.6601 27.8509C22.1327 27.3687 22.7024 27.1276 23.3692 27.1276C24.1072 27.1276 24.6737 27.3941 25.0686 27.927ZM22.437 30.7249C22.7283 31.0104 23.0941 31.1531 23.5343 31.1531C23.9745 31.1531 24.3403 31.0104 24.6316 30.7249C24.923 30.4331 25.0686 30.0682 25.0686 29.6305C25.0686 29.1927 24.923 28.8311 24.6316 28.5456C24.3403 28.2537 23.9745 28.1078 23.5343 28.1078C23.0941 28.1078 22.7283 28.2537 22.437 28.5456C22.1457 28.8311 22 29.1927 22 29.6305C22 30.0619 22.1457 30.4267 22.437 30.7249Z" fill="white"/>
<path d="M28.3886 32.0096H27.3398V25.0625H28.3886V32.0096Z" fill="white"/>
<path d="M33.2673 29.6115H29.6743V28.6217H33.2673V29.6115Z" fill="white"/>
<path d="M38.4021 27.927V27.2513H39.4508V32.0096H38.4021V31.3244C38.0072 31.8637 37.4407 32.1334 36.7027 32.1334C36.0359 32.1334 35.4662 31.8923 34.9936 31.4101C34.521 30.9279 34.2847 30.3347 34.2847 29.6305C34.2847 28.9263 34.521 28.333 34.9936 27.8509C35.4662 27.3687 36.0359 27.1276 36.7027 27.1276C37.4407 27.1276 38.0072 27.3941 38.4021 27.927ZM35.7704 30.7249C36.0618 31.0104 36.4275 31.1531 36.8678 31.1531C37.308 31.1531 37.6738 31.0104 37.9651 30.7249C38.2564 30.4331 38.4021 30.0682 38.4021 29.6305C38.4021 29.1927 38.2564 28.8311 37.9651 28.5456C37.6738 28.2537 37.308 28.1078 36.8678 28.1078C36.4275 28.1078 36.0618 28.2537 35.7704 28.5456C35.4791 28.8311 35.3334 29.1927 35.3334 29.6305C35.3334 30.0619 35.4791 30.4267 35.7704 30.7249Z" fill="white"/>
<path d="M40.6733 27.2513H43.9264V28.2411H41.722V32.0096H40.6733V27.2513Z" fill="white"/>
<path d="M49.1379 30.0682H45.273C45.3507 30.4235 45.5255 30.6995 45.7974 30.8962C46.0758 31.0929 46.4189 31.1912 46.8268 31.1912C47.377 31.1912 47.7946 30.9945 48.0795 30.6012L48.9437 31.096C48.4711 31.7876 47.7622 32.1334 46.8171 32.1334C46.0337 32.1334 45.396 31.8986 44.904 31.4291C44.4185 30.9533 44.1757 30.3537 44.1757 29.6305C44.1757 28.9263 44.4152 28.333 44.8943 27.8509C45.3669 27.3687 45.9819 27.1276 46.7394 27.1276C47.445 27.1276 48.0277 27.3719 48.4873 27.8604C48.947 28.3489 49.1768 28.9421 49.1768 29.64C49.1768 29.7669 49.1638 29.9096 49.1379 30.0682ZM45.2633 29.2308H48.1183C48.0471 28.8565 47.8853 28.5678 47.6328 28.3648C47.3868 28.1617 47.0857 28.0602 46.7297 28.0602C46.3412 28.0602 46.0175 28.1649 45.7586 28.3743C45.4996 28.5837 45.3345 28.8692 45.2633 29.2308Z" fill="white"/>
<path d="M53.3722 29.1451V27.2513H54.421V32.0096H53.3722V30.1158H51.1484V32.0096H50.0996V27.2513H51.1484V29.1451H53.3722Z" fill="white"/>
<path d="M55.1232 27.2513H59.3474V28.2411H57.7645V32.0096H56.7157V28.2411H55.1232V27.2513Z" fill="white"/>
<path d="M62.1591 32.1334C61.4276 32.1334 60.8158 31.8923 60.3238 31.4101C59.8382 30.9216 59.5955 30.3284 59.5955 29.6305C59.5955 28.9199 59.8382 28.3267 60.3238 27.8509C60.8158 27.3687 61.4276 27.1276 62.1591 27.1276C62.6317 27.1276 63.0622 27.2386 63.4507 27.4607C63.8391 27.6827 64.1304 27.9809 64.3247 28.3553L63.4215 28.8692C63.3115 28.6408 63.1432 28.4631 62.9166 28.3362C62.6965 28.203 62.4408 28.1364 62.1494 28.1364C61.7221 28.1364 61.3628 28.2791 61.0715 28.5646C60.7867 28.8565 60.6442 29.2118 60.6442 29.6305C60.6442 30.0492 60.7867 30.4045 61.0715 30.6963C61.3628 30.9818 61.7221 31.1246 62.1494 31.1246C62.4343 31.1246 62.69 31.0612 62.9166 30.9343C63.1496 30.801 63.3244 30.6202 63.441 30.3918L64.3441 30.8962C64.1369 31.2769 63.8359 31.5782 63.441 31.8003C63.0525 32.0223 62.6253 32.1334 62.1591 32.1334Z" fill="white"/>
<path d="M64.54 27.2513H68.7643V28.2411H67.1814V32.0096H66.1326V28.2411H64.54V27.2513Z" fill="white"/>
<path d="M72.8339 29.5639C73.3129 29.7859 73.5525 30.1507 73.5525 30.6583C73.5525 31.0643 73.41 31.3911 73.1252 31.6385C72.8468 31.8859 72.4584 32.0096 71.9599 32.0096H69.4739V27.2513H71.7657C72.2577 27.2513 72.6429 27.3719 72.9213 27.613C73.1996 27.854 73.3388 28.1713 73.3388 28.5646C73.3388 29.0151 73.1705 29.3482 72.8339 29.5639ZM71.688 28.1269H70.4741V29.1832H71.688C72.1153 29.1832 72.3289 29.0056 72.3289 28.6503C72.3289 28.3013 72.1153 28.1269 71.688 28.1269ZM70.4741 31.1151H71.8628C72.303 31.1151 72.5231 30.9279 72.5231 30.5536C72.5231 30.3886 72.4649 30.2618 72.3483 30.1729C72.2318 30.0778 72.0699 30.0302 71.8628 30.0302H70.4741V31.1151Z" fill="white"/>
<path d="M78.5129 31.4101C78.0209 31.8923 77.4156 32.1334 76.697 32.1334C75.9784 32.1334 75.373 31.8923 74.881 31.4101C74.3825 30.9216 74.1333 30.3284 74.1333 29.6305C74.1333 28.9326 74.3825 28.3394 74.881 27.8509C75.373 27.3687 75.9784 27.1276 76.697 27.1276C77.4156 27.1276 78.0209 27.3687 78.5129 27.8509C79.0114 28.3394 79.2606 28.9326 79.2606 29.6305C79.2606 30.3284 79.0114 30.9216 78.5129 31.4101ZM75.1821 29.6305C75.1821 30.0619 75.3277 30.4204 75.619 30.7059C75.9104 30.9914 76.2697 31.1341 76.697 31.1341C77.1242 31.1341 77.4835 30.9914 77.7749 30.7059C78.0662 30.4204 78.2119 30.0619 78.2119 29.6305C78.2119 29.1991 78.0662 28.8406 77.7749 28.5551C77.4835 28.2696 77.1242 28.1269 76.697 28.1269C76.2697 28.1269 75.9104 28.2696 75.619 28.5551C75.3277 28.8406 75.1821 29.1991 75.1821 29.6305Z" fill="white"/>
<path d="M82.6367 27.2513H86.958V32.0096H85.9092V28.222H83.6854V32.0096H82.6367V27.2513Z" fill="white"/>
<path d="M92.2826 31.4101C91.7906 31.8923 91.1852 32.1334 90.4666 32.1334C89.748 32.1334 89.1427 31.8923 88.6507 31.4101C88.1522 30.9216 87.903 30.3284 87.903 29.6305C87.903 28.9326 88.1522 28.3394 88.6507 27.8509C89.1427 27.3687 89.748 27.1276 90.4666 27.1276C91.1852 27.1276 91.7906 27.3687 92.2826 27.8509C92.7811 28.3394 93.0303 28.9326 93.0303 29.6305C93.0303 30.3284 92.7811 30.9216 92.2826 31.4101ZM88.9518 29.6305C88.9518 30.0619 89.0974 30.4204 89.3887 30.7059C89.6801 30.9914 90.0394 31.1341 90.4666 31.1341C90.8939 31.1341 91.2532 30.9914 91.5445 30.7059C91.8359 30.4204 91.9815 30.0619 91.9815 29.6305C91.9815 29.1991 91.8359 28.8406 91.5445 28.5551C91.2532 28.2696 90.8939 28.1269 90.4666 28.1269C90.0394 28.1269 89.6801 28.2696 89.3887 28.5551C89.0974 28.8406 88.9518 29.1991 88.9518 29.6305Z" fill="white"/>
<path d="M94.2151 27.2513H97.9344V32.0096H96.8856V28.2411H95.2639V30.0111C95.2639 30.7534 95.0988 31.2864 94.7686 31.6099C94.4385 31.9335 93.9561 32.0667 93.3217 32.0096V31.0485C93.6195 31.0992 93.8429 31.0389 93.9918 30.8676C94.1407 30.69 94.2151 30.3886 94.2151 29.9636V27.2513Z" fill="white"/>
<path d="M102.429 29.1451V27.2513H103.478V32.0096H102.429V30.1158H100.205V32.0096H99.1565V27.2513H100.205V29.1451H102.429Z" fill="white"/>
<path d="M108.802 31.4101C108.31 31.8923 107.705 32.1334 106.986 32.1334C106.268 32.1334 105.663 31.8923 105.171 31.4101C104.672 30.9216 104.423 30.3284 104.423 29.6305C104.423 28.9326 104.672 28.3394 105.171 27.8509C105.663 27.3687 106.268 27.1276 106.986 27.1276C107.705 27.1276 108.31 27.3687 108.802 27.8509C109.301 28.3394 109.55 28.9326 109.55 29.6305C109.55 30.3284 109.301 30.9216 108.802 31.4101ZM105.472 29.6305C105.472 30.0619 105.617 30.4204 105.909 30.7059C106.2 30.9914 106.559 31.1341 106.986 31.1341C107.414 31.1341 107.773 30.9914 108.064 30.7059C108.356 30.4204 108.501 30.0619 108.501 29.6305C108.501 29.1991 108.356 28.8406 108.064 28.5551C107.773 28.2696 107.414 28.1269 106.986 28.1269C106.559 28.1269 106.2 28.2696 105.909 28.5551C105.617 28.8406 105.472 29.1991 105.472 29.6305Z" fill="white"/>
<path d="M110.498 27.2513H113.752V28.2411H111.547V32.0096H110.498V27.2513Z" fill="white"/>
<path d="M118.38 31.4101C117.888 31.8923 117.283 32.1334 116.565 32.1334C115.846 32.1334 115.241 31.8923 114.749 31.4101C114.25 30.9216 114.001 30.3284 114.001 29.6305C114.001 28.9326 114.25 28.3394 114.749 27.8509C115.241 27.3687 115.846 27.1276 116.565 27.1276C117.283 27.1276 117.888 27.3687 118.38 27.8509C118.879 28.3394 119.128 28.9326 119.128 29.6305C119.128 30.3284 118.879 30.9216 118.38 31.4101ZM115.05 29.6305C115.05 30.0619 115.195 30.4204 115.487 30.7059C115.778 30.9914 116.137 31.1341 116.565 31.1341C116.992 31.1341 117.351 30.9914 117.642 30.7059C117.934 30.4204 118.079 30.0619 118.079 29.6305C118.079 29.1991 117.934 28.8406 117.642 28.5551C117.351 28.2696 116.992 28.1269 116.565 28.1269C116.137 28.1269 115.778 28.2696 115.487 28.5551C115.195 28.8406 115.05 29.1991 115.05 29.6305Z" fill="white"/>
<path d="M126.68 27.2513V31.0389H127.476V33.2849H126.447V32.0096H122.504V27.2513H123.553V31.0389H125.631V27.2513H126.68Z" fill="white"/>
<path d="M129.356 30.2681L131.842 27.2513H132.648V32.0096H131.619V28.9834L129.133 32.0096H128.327V27.2513H129.356V30.2681Z" fill="white"/>
<path d="M135.943 29.5829L138.157 32.0096H136.905L134.914 29.8113V32.0096H133.865V27.2513H134.914V29.3545L136.798 27.2513H138.08L135.943 29.5829Z" fill="white"/>
<path d="M139.242 27.2513H142.961V32.0096H141.912V28.2411H140.29V30.0111C140.29 30.7534 140.125 31.2864 139.795 31.6099C139.465 31.9335 138.983 32.0667 138.348 32.0096V31.0485C138.646 31.0992 138.869 31.0389 139.018 30.8676C139.167 30.69 139.242 30.3886 139.242 29.9636V27.2513Z" fill="white"/>
<path d="M148.028 27.927V27.2513H149.077V32.0096H148.028V31.3244C147.634 31.8637 147.067 32.1334 146.329 32.1334C145.662 32.1334 145.093 31.8923 144.62 31.4101C144.147 30.9279 143.911 30.3347 143.911 29.6305C143.911 28.9263 144.147 28.333 144.62 27.8509C145.093 27.3687 145.662 27.1276 146.329 27.1276C147.067 27.1276 147.634 27.3941 148.028 27.927ZM145.397 30.7249C145.688 31.0104 146.054 31.1531 146.494 31.1531C146.934 31.1531 147.3 31.0104 147.591 30.7249C147.883 30.4331 148.028 30.0682 148.028 29.6305C148.028 29.1927 147.883 28.8311 147.591 28.5456C147.3 28.2537 146.934 28.1078 146.494 28.1078C146.054 28.1078 145.688 28.2537 145.397 28.5456C145.105 28.8311 144.96 29.1927 144.96 29.6305C144.96 30.0619 145.105 30.4267 145.397 30.7249Z" fill="white"/>
<defs>
<clipPath id="clip0_198_1235">
<rect width="150" height="19.1017" fill="white"/>
</clipPath>
</defs>
</svg>
