<svg width="456" height="484" viewBox="0 0 456 484" fill="none" xmlns="http://www.w3.org/2000/svg">
<path opacity="0.2" d="M455.661 221.393V209.472C451.327 87.5371 349.249 0 226.813 0C101.849 0 0 102.338 0 227.903C0 353.467 101.849 455.805 226.813 455.805C287.49 455.805 342.387 431.854 383.199 393.023L456 484L455.661 241.83C456.022 237.475 455.661 232.923 455.661 228.205C455.661 227.48 455.661 222.482 455.661 221.393ZM226.813 381.047C143.022 381.047 74.7618 312.459 74.7618 228.265C74.7618 144.072 143.022 75.4837 226.813 75.4837C310.604 75.4837 378.865 144.072 378.865 228.265C378.865 312.459 310.604 381.047 226.813 381.047Z" fill="url(#paint0_linear_198_352)" fill-opacity="0.5"/>
<defs>
<linearGradient id="paint0_linear_198_352" x1="-5.12993" y1="318.421" x2="223.424" y2="554.512" gradientUnits="userSpaceOnUse">
<stop stop-color="#22DDC7"/>
<stop offset="1" stop-color="#1573FF"/>
</linearGradient>
</defs>
</svg>
